<?xml version="1.0" encoding="utf-8"?>
<!-- Generator: Adobe Illustrator 16.0.4, SVG Export Plug-In . SVG Version: 6.00 Build 0)  -->
<!DOCTYPE svg PUBLIC "-//W3C//DTD SVG 1.1//EN" "http://www.w3.org/Graphics/SVG/1.1/DTD/svg11.dtd">
<svg version="1.1" id="Layer_1" xmlns="http://www.w3.org/2000/svg" xmlns:xlink="http://www.w3.org/1999/xlink" x="0px" y="0px"
	 width="200px" height="200px" viewBox="0 0 200 200" enable-background="new 0 0 200 200" xml:space="preserve">
<g>
	<g>
		<path fill="#3F403F" d="M100,0C44.771,0,0,44.771,0,100s44.771,100,100,100c55.229,0,100-44.771,100-100S155.229,0,100,0z
			 M100,199.697c-55.062,0-99.697-44.637-99.697-99.697C0.303,44.939,44.938,0.303,100,0.303S199.697,44.939,199.697,100
			C199.697,155.061,155.062,199.697,100,199.697z"/>
	</g>
</g>
<path fill="#3F403F" d="M144.44,70.932h-0.558H56.117H55v58.137h1.117h87.766h0.558H145V70.932H144.44z M143.883,84.057
	l-40.916,34.785l-1.496,1.271l-1.189,1.011h-0.002L56.117,83.583v-4.567l44.164,37.54l43.602-37.068V84.057z"/>
</svg>
