<?xml version="1.0" encoding="utf-8"?>
<!-- Generator: Adobe Illustrator 16.0.4, SVG Export Plug-In . SVG Version: 6.00 Build 0)  -->
<!DOCTYPE svg PUBLIC "-//W3C//DTD SVG 1.1//EN" "http://www.w3.org/Graphics/SVG/1.1/DTD/svg11.dtd">
<svg version="1.1" id="Layer_1" xmlns="http://www.w3.org/2000/svg" xmlns:xlink="http://www.w3.org/1999/xlink" x="0px" y="0px"
	 width="200px" height="200px" viewBox="0 0 200 200" enable-background="new 0 0 200 200" xml:space="preserve">
<g>
	<path fill="#3F403F" d="M100,0C44.771,0,0,44.771,0,100c0,55.229,44.771,100,100,100c55.229,0,100-44.771,100-100
		C200,44.771,155.229,0,100,0z M100,199.697c-55.062,0-99.697-44.637-99.697-99.697C0.303,44.939,44.938,0.303,100,0.303
		c55.062,0,99.697,44.636,99.697,99.697C199.697,155.061,155.062,199.697,100,199.697z"/>
</g>
<g>
	<path fill="#306834" d="M35.504,48.794v102.412h128.992V48.794H35.504z M72.147,80.291l-18.58,7.295v-4.377l13.975-4.975
		l-13.975-5.01V68.83l18.58,7.312V80.291z M96.694,87.635H75.021v-3.516h21.674L96.694,87.635L96.694,87.635z"/>
</g>
</svg>
