<?xml version="1.0" encoding="utf-8"?>
<!-- Generator: Adobe Illustrator 16.0.4, SVG Export Plug-In . SVG Version: 6.00 Build 0)  -->
<!DOCTYPE svg PUBLIC "-//W3C//DTD SVG 1.1//EN" "http://www.w3.org/Graphics/SVG/1.1/DTD/svg11.dtd">
<svg version="1.1" id="Layer_1" xmlns="http://www.w3.org/2000/svg" xmlns:xlink="http://www.w3.org/1999/xlink" x="0px" y="0px"
	 width="200px" height="200px" viewBox="0 0 200 200" enable-background="new 0 0 200 200" xml:space="preserve">
<g>
	<g>
		<path fill="#52BA65" d="M143.019,101c0,23.76-19.262,43.02-43.021,43.02c-23.757,0-43.018-19.26-43.018-43.02
			c0-23.756,19.261-43.016,43.018-43.016C123.757,57.984,143.019,77.244,143.019,101z"/>
	</g>
	<g>
		<path fill="#52BA65" d="M100,1.003c-55.229,0-100,44.771-100,100c0,55.229,44.771,100,100,100c55.229,0,100-44.771,100-100
			C200,45.775,155.229,1.003,100,1.003z M100,200.701c-55.062,0-99.697-44.637-99.697-99.697C0.303,45.942,44.938,1.306,100,1.306
			s99.697,44.636,99.697,99.698C199.697,156.064,155.062,200.701,100,200.701z"/>
	</g>
</g>
</svg>
