<?xml version="1.0" encoding="utf-8"?>
<!-- Generator: Adobe Illustrator 16.0.4, SVG Export Plug-In . SVG Version: 6.00 Build 0)  -->
<!DOCTYPE svg PUBLIC "-//W3C//DTD SVG 1.1//EN" "http://www.w3.org/Graphics/SVG/1.1/DTD/svg11.dtd">
<svg version="1.1" id="Layer_1" xmlns="http://www.w3.org/2000/svg" xmlns:xlink="http://www.w3.org/1999/xlink" x="0px" y="0px"
	 width="200px" height="200px" viewBox="0 0 200 200" enable-background="new 0 0 200 200" xml:space="preserve">
<g>
	<path fill="#3F403F" d="M63.312,67.092c0.349,1.429-0.319,2.526-1.435,3.215c-0.578,0.352-1.59,0.451-2.206,0.193
		c-2.453-1.035-3.108-4.067-1.367-6.142c2.152-2.567,5.094-3.97,9.235-2.119c2.927,1.308,4.968,3.618,6.768,6.092
		c3.621,4.99,6.075,10.623,8.375,16.309c3.961,9.795,6.258,20.081,8.866,30.267c0.553,2.186,1.027,4.422,1.221,6.663
		c0.134,1.513,0.773,2.136,2.113,2.336c0.247,0.029,0.5,0,0.754,0c-0.035-0.186-0.031-0.387-0.092-0.555
		c-0.404-1.217-0.775-2.444-1.246-3.631c-1.668-4.141-2.75-8.455-3.18-12.85c-0.654-6.661,0.43-13.064,5.085-18.276
		c1.489-1.661,3.408-2.854,5.594-3.753c2.663-1.085,5.122,0.383,6.4,2.287c0.427,0.64,0.882,1.873,1.216,1.84
		c0.793-0.081,1.562-0.719,2.272-1.212c3.189-2.196,6.486-4.09,10.363-4.881c3.594-0.734,5.721,0.527,6.588,4.051
		c0.745,3.003-0.027,5.884-0.928,8.617c-1.835,5.583-4.641,10.699-8.802,14.938c-1.874,1.9-3.935,3.611-5.899,5.414
		c-2.562,2.357-4.85,4.945-6.744,7.859c-0.145,0.221-0.131,0.533-0.186,0.803c0.229-0.074,0.523-0.078,0.688-0.223
		c2.5-2.268,4.922-4.604,7.463-6.802c4.353-3.752,8.84-7.214,14.541-8.862c5.002-1.458,9.729,0.896,11.908,4.781
		c0.627,1.119,1.227,2.285,1.59,3.5c1.11,3.836-0.174,7.248-2.49,10.173c-3.959,5.017-9.342,7.935-15.547,9.085
		c-3.637,0.674-7.401,0.803-11.055-0.367c-0.297-0.094-0.684,0.113-1.029,0.182c0.199,0.214,0.396,0.427,0.58,0.652
		c0.293,0.344,0.569,0.694,0.861,1.047c-0.473,0.312-0.986,0.94-1.4,0.879c-1.447-0.201-2.945-0.446-4.265-1.045
		c-3.05-1.375-6.131-2.768-8.972-4.51c-3.779-2.316-7.36-4.967-11.009-7.492c-0.393-0.276-0.878-0.621-0.997-1.033
		c-0.109-0.352,0.133-0.94,0.412-1.229c0.225-0.228,0.773-0.096,1.14-0.215c1.305-0.422,1.55-0.927,1.02-2.222
		c-0.641-1.547-1.32-3.08-2.044-4.594c-3.137-6.608-6.43-13.131-10.689-19.14c-2.371-3.345-5.17-6.246-8.115-9.035
		c-0.435-0.413-1.35-1.647-1.074,0.482c0.175,1.372-0.704,1.882-2.072,1.882c-0.586,0-1.188-0.069-1.746-0.235
		c-1.354-0.395-2.378-1.359-2.395-2.718c-0.019-1.305,0.881-2.412,2.126-3.002c2.341-1.095,4.354-0.168,6.336,1.086
		c2.392,1.52,4.121,3.726,5.753,5.907c2.302,3.073,4.381,6.349,6.195,9.735c2.658,4.955,5.001,10.08,7.479,15.129
		c0.081,0.179,0.159,0.351,0.241,0.528c0.093-0.235,0.307-0.495,0.259-0.696c-0.632-2.778-1.28-5.555-1.968-8.314
		c-2.005-8.034-4.454-15.935-7.677-23.562c-2.03-4.814-4.371-9.526-7.275-13.882c-1.189-1.786-2.896-3.275-4.574-4.662
		c-0.756-0.628-1.983-0.872-3.023-0.95C63.38,64.679,63.043,65.152,63.312,67.092z"/>
</g>
</svg>
