<?xml version="1.0" encoding="UTF-8" standalone="no"?>
<svg width="239px" height="101px" viewBox="0 0 239 101" version="1.1" xmlns="http://www.w3.org/2000/svg" xmlns:xlink="http://www.w3.org/1999/xlink" xmlns:sketch="http://www.bohemiancoding.com/sketch/ns">
    <!-- Generator: Sketch 3.3.1 (12005) - http://www.bohemiancoding.com/sketch -->
    <title>play-logo_play-logo-alternate</title>
    <desc>Created with Sketch.</desc>
    <defs></defs>
    <g id="Logo-exports" stroke="none" stroke-width="1" fill="none" fill-rule="evenodd" sketch:type="MSPage">
        <g id="play-logo_play-logo-alternate" sketch:type="MSLayerGroup" transform="translate(0.934783, 0.500000)">
            <g id="Group" sketch:type="MSShapeGroup">
                <path d="M0,48.6878551 C0,33.089942 12.1214638,20.3361304 27.0884928,20.3361304 C42.0555217,20.3361304 54.1769855,33.089942 54.1769855,48.6878551 C54.1769855,64.4980145 42.0555217,77.2518261 27.0884928,77.2518261 C16.9709275,77.2518261 8.32884058,71.4538406 3.89947826,62.8117536 L3.89947826,100.121739 L0,100.121739 L0,48.6878551 L0,48.6878551 Z M27.087029,73.3508841 C39.8408406,73.3508841 50.2760435,62.2833333 50.2760435,48.6863913 C50.2760435,35.3002319 39.8408406,24.3395362 27.087029,24.3395362 C14.3332174,24.3395362 3.89947826,35.3016957 3.89947826,48.6878551 C3.89947826,62.2847971 14.3332174,73.3508841 27.087029,73.3508841 L27.087029,73.3508841 Z" id="Shape" fill="#00AEEF"></path>
                <path d="M66.5458261,0 L70.3516232,0 L70.3516232,75.9871304 L66.5458261,75.9871304 L66.5458261,0 L66.5458261,0 Z" id="Shape" fill="#00AEEF"></path>
                <path d="M136.904768,75.9871304 L133.00529,75.9871304 L133.00529,62.9156812 C128.580319,71.4523768 119.936768,77.2503623 109.816275,77.2503623 C94.8492464,77.2503623 82.7307101,64.601942 82.7307101,49.004029 C82.7307101,33.1938696 94.8492464,20.3346667 109.816275,20.3346667 C124.786232,20.3346667 136.904768,33.1938696 136.904768,49.004029 L136.904768,75.9871304 L136.904768,75.9871304 Z M109.816275,24.341 C97.0624638,24.341 86.6301884,35.4085507 86.6301884,49.0054928 C86.6301884,62.3916522 97.0624638,73.3523478 109.816275,73.3523478 C122.570087,73.3523478 133.00529,62.3916522 133.00529,49.0054928 C133.00529,35.407087 122.570087,24.341 109.816275,24.341 L109.816275,24.341 Z" id="Shape" fill="#00AEEF"></path>
                <path d="M193.505754,72.1930435 C188.880246,75.9871304 183.727783,77.8827101 178.046899,77.8827101 C170.688536,77.8827101 164.378232,75.4777391 159.117449,70.6634058 C153.859594,65.852 151.23213,60.1418406 151.23213,53.5387826 L151.23213,26.9801739 L155.974739,26.9801739 L155.974739,53.6002609 C155.974739,59.0235217 158.07671,63.6695217 162.282116,67.5426522 C166.487522,71.4157826 171.707319,73.3523478 177.945899,73.3523478 C182.92271,73.3523478 186.917333,72.0452029 189.932696,69.4294493 C191.402319,68.1574348 192.665551,66.9542174 193.718,65.8241884 C194.767522,64.6926957 195.784841,63.4543478 196.765565,62.1106087 C198.306913,59.7773623 199.078319,57.8715362 199.078319,56.3843478 L199.078319,26.9801739 L203.820928,26.9801739 L203.820928,72.4023623 C203.820928,79.8500145 201.238841,86.1046957 196.07613,91.1620145 C190.910493,96.2222609 184.641174,98.7501884 177.260855,98.7501884 C172.554841,98.7501884 168.690493,97.9436522 165.667812,96.3291159 C162.646594,94.7116522 160.573899,93.2698406 159.449725,92.0066087 C158.325551,90.9512319 157.410696,89.9675797 156.711014,89.0556522 L154.497797,85.6816667 L158.703203,83.363058 C162.697826,90.5984638 168.795884,94.2183623 176.997377,94.2183623 C183.446739,94.2183623 188.736797,92.1910435 192.873406,88.134942 C197.010014,84.0803043 199.076855,78.842942 199.076855,72.4257826 L199.076855,66.0818116 L196.238609,69.5582609 L193.505754,72.1930435 L193.505754,72.1930435 Z" id="Shape" fill="#00AEEF"></path>
                <path d="M223.321246,63.3987246 L237.077739,63.3987246 L237.077739,75.9871304 L223.321246,75.9871304 L223.321246,63.3987246 L223.321246,63.3987246 Z" id="Shape" fill="#FFFFFF"></path>
            </g>
        </g>
    </g>
</svg>