<?xml version="1.0" encoding="UTF-8" standalone="no"?>
<svg width="238px" height="101px" viewBox="0 0 238 101" version="1.1" xmlns="http://www.w3.org/2000/svg" xmlns:xlink="http://www.w3.org/1999/xlink" xmlns:sketch="http://www.bohemiancoding.com/sketch/ns">
    <!-- Generator: Sketch 3.3.1 (12005) - http://www.bohemiancoding.com/sketch -->
    <title>play-logo_play-logo-default</title>
    <desc>Created with Sketch.</desc>
    <defs></defs>
    <g id="Logo-exports" stroke="none" stroke-width="1" fill="none" fill-rule="evenodd" sketch:type="MSPage">
        <g id="play-logo_play-logo-default" sketch:type="MSLayerGroup">
            <g id="Group" sketch:type="MSShapeGroup">
                <path d="M0,48.6878551 C0,33.089942 12.1659136,20.3361304 27.1878272,20.3361304 C42.2097407,20.3361304 54.3756543,33.089942 54.3756543,48.6878551 C54.3756543,64.4980145 42.2097407,77.2518261 27.1878272,77.2518261 C17.0331605,77.2518261 8.35938272,71.4538406 3.91377778,62.8117536 L3.91377778,100.121739 L0,100.121739 L0,48.6878551 L0,48.6878551 Z M27.186358,73.3508841 C39.9869383,73.3508841 50.4604074,62.2833333 50.4604074,48.6863913 C50.4604074,35.3002319 39.9869383,24.3395362 27.186358,24.3395362 C14.3857778,24.3395362 3.91377778,35.3016957 3.91377778,48.6878551 C3.91377778,62.2847971 14.3857778,73.3508841 27.186358,73.3508841 L27.186358,73.3508841 Z" id="Shape" fill="#414042"></path>
                <path d="M66.7898519,0 L70.6096049,0 L70.6096049,75.9871304 L66.7898519,75.9871304 L66.7898519,0 L66.7898519,0 Z" id="Shape" fill="#414042"></path>
                <path d="M137.406802,75.9871304 L133.493025,75.9871304 L133.493025,62.9156812 C129.051827,71.4523768 120.37658,77.2503623 110.218975,77.2503623 C95.1970617,77.2503623 83.0340864,64.601942 83.0340864,49.004029 C83.0340864,33.1938696 95.1970617,20.3346667 110.218975,20.3346667 C125.243827,20.3346667 137.406802,33.1938696 137.406802,49.004029 L137.406802,75.9871304 L137.406802,75.9871304 Z M110.218975,24.341 C97.4183951,24.341 86.9478642,35.4085507 86.9478642,49.0054928 C86.9478642,62.3916522 97.4183951,73.3523478 110.218975,73.3523478 C123.019556,73.3523478 133.493025,62.3916522 133.493025,49.0054928 C133.493025,35.407087 123.019556,24.341 110.218975,24.341 L110.218975,24.341 Z" id="Shape" fill="#414042"></path>
                <path d="M194.215346,72.1930435 C189.572877,75.9871304 184.401519,77.8827101 178.699802,77.8827101 C171.314457,77.8827101 164.981012,75.4777391 159.700938,70.6634058 C154.423802,65.852 151.786704,60.1418406 151.786704,53.5387826 L151.786704,26.9801739 L156.546704,26.9801739 L156.546704,53.6002609 C156.546704,59.0235217 158.656383,63.6695217 162.87721,67.5426522 C167.098037,71.4157826 172.336975,73.3523478 178.598432,73.3523478 C183.593494,73.3523478 187.602765,72.0452029 190.629185,69.4294493 C192.104198,68.1574348 193.372062,66.9542174 194.42837,65.8241884 C195.481741,64.6926957 196.50279,63.4543478 197.487111,62.1106087 C199.034111,59.7773623 199.808346,57.8715362 199.808346,56.3843478 L199.808346,26.9801739 L204.568346,26.9801739 L204.568346,72.4023623 C204.568346,79.8500145 201.97679,86.1046957 196.795148,91.1620145 C191.610568,96.2222609 185.318259,98.7501884 177.910877,98.7501884 C173.187605,98.7501884 169.309086,97.9436522 166.275321,96.3291159 C163.243025,94.7116522 161.162728,93.2698406 160.034432,92.0066087 C158.906136,90.9512319 157.987926,89.9675797 157.285679,89.0556522 L155.064346,85.6816667 L159.285173,83.363058 C163.294444,90.5984638 169.414864,94.2183623 177.646432,94.2183623 C184.119444,94.2183623 189.428901,92.1910435 193.580679,88.134942 C197.732457,84.0803043 199.806877,78.842942 199.806877,72.4257826 L199.806877,66.0818116 L196.958222,69.5582609 L194.215346,72.1930435 L194.215346,72.1930435 Z" id="Shape" fill="#414042"></path>
                <path d="M224.140173,63.3987246 L237.947111,63.3987246 L237.947111,75.9871304 L224.140173,75.9871304 L224.140173,63.3987246 L224.140173,63.3987246 Z" id="Shape" fill="#00AEEF"></path>
            </g>
        </g>
    </g>
</svg>