<?xml version="1.0" encoding="utf-8"?>
<!-- Generator: Adobe Illustrator 16.0.4, SVG Export Plug-In . SVG Version: 6.00 Build 0)  -->
<!DOCTYPE svg PUBLIC "-//W3C//DTD SVG 1.1//EN" "http://www.w3.org/Graphics/SVG/1.1/DTD/svg11.dtd">
<svg version="1.1" id="Layer_1" xmlns="http://www.w3.org/2000/svg" xmlns:xlink="http://www.w3.org/1999/xlink" x="0px" y="0px"
	 width="423px" height="320px" viewBox="0 0 423 320" enable-background="new 0 0 423 320" xml:space="preserve">
<rect fill="#00BFEF" width="423" height="320"/>
<path fill="none" d="M-0.016,204.198c-0.348,0.009-0.692,0.026-1.041,0.026c0.349,0,0.693,0.018,1.041,0.026V204.198z"/>
<path fill="#FFFFFF" d="M41.417,75.208c0-22.867-18.457-41.454-41.433-42.004v23.955c9.606,0.536,17.23,8.411,17.23,18.049
	c0,9.64-7.624,17.515-17.23,18.049v23.954C22.96,116.661,41.417,98.074,41.417,75.208z"/>
<path fill="#77C9B3" d="M17.215,75.208c0-9.638-7.624-17.513-17.23-18.049v36.098C9.591,92.723,17.215,84.848,17.215,75.208z"/>
<path fill="#FFFFFF" d="M17.216,162.195c0,9.641-7.624,17.516-17.231,18.05v23.953c22.976-0.549,41.435-19.136,41.435-42.003
	S22.96,120.741-0.016,120.192v23.954C9.592,144.681,17.216,152.557,17.216,162.195z"/>
<path fill="#77C9B3" d="M17.216,162.195c0-9.639-7.624-17.515-17.231-18.049v36.099C9.592,179.711,17.216,171.836,17.216,162.195z"
	/>
<path fill="#FFFFFF" d="M41.419,246.254c0-22.866-18.459-41.454-41.435-42.003v23.955c9.607,0.534,17.231,8.41,17.231,18.048
	c0,9.641-7.624,17.516-17.231,18.051v23.953C22.96,287.709,41.419,269.121,41.419,246.254z"/>
<path fill="#77C9B3" d="M17.216,246.254c0-9.638-7.624-17.514-17.231-18.048v36.099C9.592,263.77,17.216,255.895,17.216,246.254z"/>
<g>
	<ellipse fill="#FFFFFF" cx="83.896" cy="73.746" rx="42.475" ry="42.029"/>
	<ellipse fill="#306935" cx="83.896" cy="73.746" rx="18.272" ry="18.08"/>
</g>
<g>
	<ellipse fill="#FFFFFF" cx="168.847" cy="73.745" rx="42.475" ry="42.03"/>
	<ellipse fill="#77C9B3" cx="168.846" cy="73.745" rx="18.272" ry="18.081"/>
</g>
<g>
	<ellipse fill="#FFFFFF" cx="253.796" cy="73.745" rx="42.475" ry="42.03"/>
	<ellipse fill="#77C9B3" cx="253.796" cy="73.745" rx="18.273" ry="18.081"/>
</g>
<g>
	<ellipse fill="#FFFFFF" cx="338.746" cy="73.744" rx="42.475" ry="42.03"/>
	<ellipse fill="#77C9B3" cx="338.746" cy="73.744" rx="18.272" ry="18.081"/>
</g>
<g>
	<ellipse fill="#FFFFFF" cx="83.898" cy="160.733" rx="42.475" ry="42.029"/>
	<ellipse fill="#77C9B3" cx="83.898" cy="160.733" rx="18.272" ry="18.081"/>
</g>
<g>
	<ellipse fill="#FFFFFF" cx="168.848" cy="160.733" rx="42.475" ry="42.029"/>
	<ellipse fill="#77C9B3" cx="168.848" cy="160.733" rx="18.272" ry="18.081"/>
</g>
<g>
	<ellipse fill="#FFFFFF" cx="253.798" cy="160.733" rx="42.475" ry="42.029"/>
	<ellipse fill="#77C9B3" cx="253.798" cy="160.733" rx="18.272" ry="18.081"/>
</g>
<g>
	<ellipse fill="#FFFFFF" cx="338.748" cy="160.731" rx="42.475" ry="42.03"/>
	<ellipse fill="#77C9B3" cx="338.748" cy="160.731" rx="18.272" ry="18.082"/>
</g>
<g>
	<ellipse fill="#FFFFFF" cx="83.898" cy="244.793" rx="42.475" ry="42.029"/>
	<ellipse fill="#77C9B3" cx="83.898" cy="244.793" rx="18.272" ry="18.081"/>
</g>
<g>
	<ellipse fill="#FFFFFF" cx="168.848" cy="244.793" rx="42.475" ry="42.029"/>
	<ellipse fill="#77C9B3" cx="168.848" cy="244.793" rx="18.272" ry="18.08"/>
</g>
<g>
	<ellipse fill="#FFFFFF" cx="253.798" cy="244.793" rx="42.475" ry="42.029"/>
	<ellipse fill="#77C9B3" cx="253.798" cy="244.793" rx="18.272" ry="18.08"/>
</g>
<g>
	<ellipse fill="#FFFFFF" cx="338.748" cy="244.791" rx="42.475" ry="42.029"/>
	<ellipse fill="#77C9B3" cx="338.748" cy="244.791" rx="18.272" ry="18.082"/>
</g>
<g>
	<path fill="#FFFFFF" d="M405.419,75.209c0-9.754,7.813-17.682,17.581-18.045V33.197c-23.137,0.367-41.783,19.029-41.783,42.012
		s18.646,41.645,41.783,42.012V93.256C413.232,92.893,405.419,84.964,405.419,75.209z"/>
	<path fill="#77C9B3" d="M405.419,75.209c0,9.755,7.813,17.684,17.581,18.047V57.164C413.232,57.527,405.419,65.455,405.419,75.209z
		"/>
	<path fill="#FFFFFF" d="M405.422,162.196c0-9.754,7.812-17.682,17.578-18.045v-23.967c-23.137,0.367-41.782,19.029-41.782,42.012
		c0,22.983,18.646,41.646,41.782,42.013v-23.966C413.233,179.88,405.422,171.952,405.422,162.196z"/>
	<path fill="#77C9B3" d="M405.422,162.196c0,9.756,7.812,17.684,17.578,18.047v-36.092
		C413.233,144.515,405.422,152.442,405.422,162.196z"/>
	<path fill="#FFFFFF" d="M405.422,246.256c0-9.754,7.812-17.682,17.578-18.045v-23.967c-23.137,0.367-41.782,19.028-41.782,42.012
		c0,22.982,18.646,41.645,41.782,42.012v-23.967C413.233,263.938,405.422,256.011,405.422,246.256z"/>
	<path fill="#77C9B3" d="M405.422,246.256c0,9.755,7.812,17.683,17.578,18.045v-36.09
		C413.233,228.574,405.422,236.502,405.422,246.256z"/>
</g>
</svg>
