<?xml version="1.0" encoding="utf-8"?>
<!-- Generator: Adobe Illustrator 16.0.4, SVG Export Plug-In . SVG Version: 6.00 Build 0)  -->
<!DOCTYPE svg PUBLIC "-//W3C//DTD SVG 1.1//EN" "http://www.w3.org/Graphics/SVG/1.1/DTD/svg11.dtd">
<svg version="1.1" id="Layer_1" xmlns="http://www.w3.org/2000/svg" xmlns:xlink="http://www.w3.org/1999/xlink" x="0px" y="0px"
	 width="100px" height="100px" viewBox="0 0 100 100" enable-background="new 0 0 100 100" xml:space="preserve">
<path fill="#888888" d="M91.456,36.175c-0.765-2.747-2.231-4.46-4.024-4.703c-1.3-0.177-3.298,0.367-5.455,3.961
	c-1.189,1.983-3.383,2.759-5.603,2.981C72.018,21.333,63.773,6.7,44.213,6.7C20.709,6.711,17.065,21.988,13.208,38.163
	c-0.946,3.966-1.924,8.067-3.215,11.987C6.53,60.654,7.274,69.438,12.202,76.251c2.237,3.092,5.215,5.535,8.583,7.442
	c-0.435,0.601-0.684,1.275-0.604,2.043c0.187,1.814,1.388,2.9,3.213,2.9c0.28,0,0.581-0.027,0.878-0.082
	c-0.141,0.674-0.193,1.348-0.148,1.982c0.103,1.471,1.848,2.762,3.734,2.762c0.606,0,2.25-0.176,3.306-1.934
	c0.531,0.986,1.418,1.797,2.823,1.797c0,0,0,0,0.001,0c0.417,0,0.866-0.074,1.333-0.223c0.794-0.25,1.386-0.779,1.71-1.529
	c0.296-0.686,0.351-1.537,0.25-2.463c1.706,0.213,3.329,0.332,4.819,0.381c0.208,0.01,0.413,0.014,0.62,0.02
	c0.033,0.002,0.065,0.002,0.098,0.002c0.529,0.019,1.058,0.031,1.574,0.031c2.428,0,5.538-0.164,8.906-0.734
	c-0.034,1.037,0.095,1.979,0.494,2.693c0.399,0.713,1.043,1.18,1.858,1.346c0.334,0.068,0.658,0.105,0.961,0.105
	c0.925,0,1.721-0.33,2.303-0.953c0.316-0.34,0.548-0.734,0.714-1.141c1.054,1.402,2.401,1.6,3.075,1.6
	c1.115,0,2.245-0.479,3.02-1.279c0.551-0.567,0.84-1.233,0.818-1.875c-0.021-0.635-0.143-1.299-0.354-1.957
	c0.147,0.013,0.283,0.019,0.4,0.019c0.61,0,1.492-0.115,2.225-0.666c0.526-0.396,1.156-1.164,1.155-2.574
	c-0.001-0.719-0.27-1.332-0.704-1.856c1.412-1.084,2.752-2.314,3.961-3.746c4.518-5.344,6.631-12.357,6.342-20.9
	c3.031-0.539,5.691-1.896,7.82-4.046C91.594,49.17,93.189,42.402,91.456,36.175z M59.82,24.403c0.938,0,1.697,0.896,1.697,1.999
	c0,1.104-0.761,1.999-1.697,1.999c-0.938,0-1.696-0.895-1.696-1.999C58.124,25.299,58.884,24.403,59.82,24.403z M52.402,31.883
	c0.518,0.577,2.164,6.329-0.328,6.57c-2.493,0.241-4.917-4.525-4.917-4.525C49.6,29.627,52.402,31.883,52.402,31.883z M37.46,25.928
	c0.938,0,1.697,0.896,1.697,1.999c0,1.104-0.759,1.999-1.697,1.999c-0.937,0-1.696-0.895-1.696-1.999
	C35.764,26.823,36.523,25.928,37.46,25.928z M67.975,80.454c-4.117,5.438-28.875,11.598-46.48,1.301
	c-0.881-3.471-0.767-7.612,0.138-11.879c1.687,0.576,3.388,0.849,5.065,0.849c7.098,0,13.757-4.757,16.942-10.793
	c1.473-2.791,1.596-5.285,0.337-6.845c-0.913-1.129-2.937-2.213-7.402-0.96c-1.782,0.498-3.675,0.135-5.636-1.066
	c2.733-3.119,5.89-5.586,9.31-6.932c10.979-4.315,24.303-2.773,28.561,9.325C74.238,68.889,69.305,78.698,67.975,80.454z"/>
</svg>
