<?xml version="1.0" encoding="utf-8"?>
<!-- Generator: Adobe Illustrator 16.0.4, SVG Export Plug-In . SVG Version: 6.00 Build 0)  -->
<!DOCTYPE svg PUBLIC "-//W3C//DTD SVG 1.1//EN" "http://www.w3.org/Graphics/SVG/1.1/DTD/svg11.dtd">
<svg version="1.1" id="Layer_1" xmlns="http://www.w3.org/2000/svg" xmlns:xlink="http://www.w3.org/1999/xlink" x="0px" y="0px"
	 width="495.545px" height="235.229px" viewBox="156.228 51.385 495.545 235.229"
	 enable-background="new 156.228 51.385 495.545 235.229" xml:space="preserve">
<g>
	<g>
		<g id="f">
			<path d="M253.585,203.736h-10.67v-77.162c0-13.472,7.888-21.838,20.587-21.838h9.082v10.675h-8.663
				c-6.277,0-10.336,4.274-10.336,10.885v1.177h19.137v10.676h-19.137V203.736L253.585,203.736z"/>
		</g>
		<g id="a">
			<path d="M335.916,133.939c-5.936-6.466-12.75-6.466-18.76-6.466h-39.445v10.676h41.521c4.383,0,6.863,0.488,9.172,3.294
				c2.105,2.478,2.551,5.647,2.551,7.87v1.316h-31.823c-13.099,0-21.562,8.463-21.562,21.559v10.543
				c0,12.562,8.774,21.006,21.836,21.006h21.079c6.944,0,12.075-2.108,16.153-6.637c4.48-4.996,4.854-10.176,4.854-15.483v-31.473
				C341.49,143.622,339.574,138.03,335.916,133.939z M330.812,182.591c0,7.246-3.146,10.471-10.19,10.471h-21.49
				c-2.717,0-5.891-1.131-8.135-2.922c-2.335-1.804-2.752-3.58-2.752-7.688v-10.403c0-6.828,3.817-10.743,10.471-10.743h32.097
				V182.591L330.812,182.591z"/>
		</g>
		<g id="d">
			<path d="M407.479,104.878v22.596h-29.741c-15.602,0-24.191,8.251-24.191,23.229v29.803c0,5.756,0.392,11.354,5.129,16.604
				c5.951,6.629,12.318,6.629,19.062,6.629h15.529c20.571,0,24.892-12.325,24.892-22.67v-76.189H407.479z M407.479,180.781
				c0,3.039,0,12.279-15.318,12.279H377.6c-11.141,0-13.379-3.955-13.379-10.332v-31.896c0-8.537,4.33-12.686,13.238-12.686h30.02
				V180.781z"/>
		</g>
		<g id="e">
			<path d="M494.406,149.312c0-5.51-0.408-10.879-5.396-16.033c-5.352-5.357-11.471-5.807-17.277-5.807H453.16
				c-4.939,0-10.115,0.425-14.482,3.502c-5.523,3.86-8.322,10.541-8.322,19.858v29.815c0,20.459,13.225,23.086,24.742,23.086h39.178
				v-10.676h-40.146c-3.838,0-6.963-0.146-9.457-2.014c-3.178-2.308-3.469-5.836-3.567-11.374c-0.003-0.175-0.009-0.35-0.013-0.53
				l53.318-23.405v-6.424L494.406,149.312L494.406,149.312z M441.02,167.479v-17.89c0-8.443,3.543-11.44,13.521-11.44h15.531
				c9.754,0,13.441,2.89,13.518,10.642L441.02,167.479z"/>
		</g>
		<g id="i_1_">
			<rect id="i" x="504.65" y="127.473" width="10.682" height="76.263"/>
			<path id="i_dot__x28_top_x29_" d="M509.574,118.881c-3.938,0-6.582-3.692-6.582-7.141c0-3.369,2.467-7.003,6.447-7.003
				c3.512,0,7.275,2.759,7.275,6.867C516.717,115.617,513.514,118.881,509.574,118.881z"/>
		</g>
		<polygon id="t" points="538.068,203.736 527.387,203.736 527.387,104.736 538.068,104.736 538.068,127.473 557.756,127.473 
			557.756,138.149 538.068,138.149 		"/>
	</g>
	<rect x="242.915" y="218.533" fill="#0BADE1" width="78.944" height="3.268"/>
	<rect x="321.858" y="218.533" fill="#77C9B3" width="78.943" height="3.268"/>
	<rect x="400.804" y="218.533" fill="#52BA65" width="78.944" height="3.268"/>
	<rect x="479.745" y="218.533" fill="#0E9948" width="78.944" height="3.268"/>
	
		<line fill="none" stroke="#77C9B3" stroke-width="0.4084" stroke-miterlimit="10" x1="242.915" y1="286.615" x2="242.915" y2="51.385"/>
	
		<line fill="none" stroke="#77C9B3" stroke-width="0.4084" stroke-miterlimit="10" x1="557.756" y1="286.617" x2="557.756" y2="51.385"/>
	
		<line fill="none" stroke="#77C9B3" stroke-width="0.4084" stroke-miterlimit="10" x1="156.228" y1="104.736" x2="651.773" y2="104.736"/>
	
		<line fill="none" stroke="#77C9B3" stroke-width="0.4084" stroke-miterlimit="10" x1="156.228" y1="221.801" x2="651.773" y2="221.801"/>
	
		<line fill="none" stroke="#77C9B3" stroke-width="0.4084" stroke-miterlimit="10" x1="156.228" y1="203.736" x2="651.773" y2="203.736"/>
	
		<line fill="none" stroke="#77C9B3" stroke-width="0.4084" stroke-miterlimit="10" x1="156.228" y1="218.533" x2="651.773" y2="218.533"/>
	
		<line fill="none" stroke="#77C9B3" stroke-width="0.4084" stroke-miterlimit="10" x1="238.345" y1="228.512" x2="238.345" y2="220.168"/>
	
		<line fill="none" stroke="#77C9B3" stroke-width="0.4084" stroke-miterlimit="10" x1="272.722" y1="286.615" x2="272.722" y2="51.385"/>
	
		<line fill="none" stroke="#77C9B3" stroke-width="0.4084" stroke-miterlimit="10" x1="277.663" y1="286.615" x2="277.663" y2="51.385"/>
	
		<line fill="none" stroke="#77C9B3" stroke-width="0.4084" stroke-miterlimit="10" x1="341.49" y1="286.615" x2="341.49" y2="51.385"/>
	
		<line fill="none" stroke="#77C9B3" stroke-width="0.4084" stroke-miterlimit="10" x1="353.355" y1="286.615" x2="353.355" y2="51.385"/>
	
		<line fill="none" stroke="#77C9B3" stroke-width="0.4084" stroke-miterlimit="10" x1="527.387" y1="286.616" x2="527.387" y2="51.385"/>
	
		<line fill="none" stroke="#77C9B3" stroke-width="0.4084" stroke-miterlimit="10" x1="502.992" y1="286.615" x2="502.992" y2="51.385"/>
	
		<line fill="none" stroke="#77C9B3" stroke-width="0.4084" stroke-miterlimit="10" x1="516.717" y1="286.616" x2="516.717" y2="51.385"/>
	
		<line fill="none" stroke="#77C9B3" stroke-width="0.4084" stroke-miterlimit="10" x1="494.406" y1="286.615" x2="494.406" y2="51.385"/>
	
		<line fill="none" stroke="#77C9B3" stroke-width="0.4084" stroke-miterlimit="10" x1="430.352" y1="286.615" x2="430.352" y2="51.385"/>
	
		<line fill="none" stroke="#77C9B3" stroke-width="0.4084" stroke-miterlimit="10" x1="418.156" y1="286.615" x2="418.156" y2="51.385"/>
	
		<line fill="none" stroke="#00AEEF" stroke-width="1.6337" stroke-miterlimit="10" x1="591.326" y1="104.736" x2="591.326" y2="221.801"/>
	
		<line fill="none" stroke="#00AEEF" stroke-width="1.6337" stroke-miterlimit="10" x1="242.915" y1="245.238" x2="558.689" y2="245.238"/>
</g>
</svg>
