<?xml version="1.0" encoding="utf-8"?>
<!-- Generator: Adobe Illustrator 16.0.4, SVG Export Plug-In . SVG Version: 6.00 Build 0)  -->
<!DOCTYPE svg PUBLIC "-//W3C//DTD SVG 1.1//EN" "http://www.w3.org/Graphics/SVG/1.1/DTD/svg11.dtd">
<svg version="1.1" id="Layer_1" xmlns="http://www.w3.org/2000/svg" xmlns:xlink="http://www.w3.org/1999/xlink" x="0px" y="0px"
	 width="150px" height="47.166px" viewBox="0 0 150 47.166" enable-background="new 0 0 150 47.166" xml:space="preserve">
<g id="logo_without_strokes_1_">
	<g id="f_1_">
		<path fill="#A7A9AC" d="M5.084,47.166H0V10.404C0,3.986,3.759,0,9.809,0h4.327v5.087h-4.128c-2.991,0-4.924,2.036-4.924,5.186
			v0.56h9.117v5.087H5.084V47.166z"/>
	</g>
	<g id="a_1_">
		<path fill="#A7A9AC" d="M44.309,13.913c-2.827-3.081-6.073-3.081-8.938-3.081H16.578v5.087H36.36c2.088,0,3.271,0.231,4.369,1.568
			c1.005,1.181,1.215,2.691,1.215,3.75v0.627H26.783c-6.239,0-10.271,4.032-10.271,10.272v5.021c0,5.984,4.181,10.008,10.403,10.008
			h10.041c3.31,0,5.754-1.004,7.696-3.161c2.136-2.381,2.312-4.848,2.312-7.377V21.633C46.964,18.526,46.051,15.861,44.309,13.913z
			 M41.877,37.092c0,3.451-1.497,4.989-4.854,4.989h-10.24c-1.294,0-2.806-0.541-3.876-1.394c-1.112-0.858-1.311-1.705-1.311-3.662
			v-4.956c0-3.252,1.818-5.119,4.989-5.119h15.291V37.092z"/>
	</g>
	<g id="d_1_">
		<path fill="#A7A9AC" d="M78.403,0.067v10.765h-14.17c-7.434,0-11.526,3.931-11.526,11.067V36.1c0,2.741,0.188,5.408,2.444,7.908
			c2.834,3.158,5.869,3.158,9.082,3.158h7.399c9.8,0,11.857-5.873,11.857-10.799V0.067H78.403z M78.403,36.231
			c0,1.447,0,5.85-7.299,5.85h-6.936c-5.309,0-6.375-1.884-6.375-4.923V21.962c0-4.067,2.062-6.043,6.308-6.043h14.302V36.231z"/>
	</g>
	<g id="e_1_">
		<path fill="#A7A9AC" d="M119.818,21.237c0-2.624-0.196-5.183-2.569-7.639c-2.551-2.553-5.466-2.766-8.232-2.766h-8.852
			c-2.353,0-4.818,0.202-6.9,1.668c-2.631,1.839-3.966,5.023-3.966,9.462v14.205c0,9.749,6.302,10.999,11.791,10.999h18.662v-5.085
			h-19.125c-1.826,0-3.316-0.07-4.506-0.96c-1.515-1.099-1.652-2.781-1.701-5.42c-0.002-0.082-0.005-0.167-0.006-0.252
			l25.404-11.152V21.237z M94.385,29.892v-8.523c0-4.023,1.686-5.45,6.441-5.45h7.397c4.646,0,6.404,1.376,6.44,5.068L94.385,29.892
			z"/>
	</g>
	<g id="i_2_">
		<rect id="i_3_" x="124.7" y="10.832" fill="#A7A9AC" width="5.088" height="36.334"/>
		<path id="i_dot__x28_top_x29__1_" fill="#A7A9AC" d="M127.046,6.739c-1.876,0-3.138-1.76-3.138-3.403
			c0-1.604,1.176-3.336,3.072-3.336c1.674,0,3.468,1.315,3.468,3.271C130.448,5.184,128.922,6.739,127.046,6.739z"/>
	</g>
	<polygon id="t_1_" fill="#A7A9AC" points="140.621,47.166 135.531,47.166 135.531,0 140.621,0 140.621,10.832 150,10.832 
		150,15.919 140.621,15.919 	"/>
</g>
</svg>
